# xmcd
#
# Track frame offsets: 
#        150
#        16034
#        28110
#        46751
#        60479
#        75821
#        90815
#        100659
#        120147
#        136184
#        147688
#        163189
#        172586
#        188160
#
# Disc length: 2593 seconds
#
# Revision: 0
# Processed by: cddbd v1.5.2PL0 Copyright (c) Steve Scherf et al.
# Submitted via: ExactAudioCopy v0.95b4
#
DISCID=930a1f0e
DTITLE=Honky Tonk Confidential - Road Kill Stew and Other News
DYEAR=2007
DGENRE=Country
TTITLE0=Hard Choices
TTITLE1=Hangover Boogie
TTITLE2=Road Kill Stew
TTITLE3=Little Lulu and Sister Hot Stuff
TTITLE4=The Ghost in My Guitar
TTITLE5=TV Anchorman
TTITLE6=Lorraine, Lorraine
TTITLE7=Statue of a Fool
TTITLE8=Black Roses
TTITLE9=I Wish You Were From Texas
TTITLE10=Guitar Boogie
TTITLE11=Long Shot Love
TTITLE12=A Girl Named Dick
TTITLE13=addENDum: WHTC Radio -- Momma's Cow
EXTD=
EXTT0=
EXTT1=
EXTT2=
EXTT3=
EXTT4=
EXTT5=
EXTT6=
EXTT7=
EXTT8=
EXTT9=
EXTT10=
EXTT11=
EXTT12=
EXTT13=
PLAYORDER=
